<svg width="24" height="24" xmlns="http://www.w3.org/2000/svg" xmlns:xlink="http://www.w3.org/1999/xlink" overflow="hidden"><defs><clipPath id="clip0"><rect x="299" y="238" width="24" height="24"/></clipPath></defs><g clip-path="url(#clip0)" transform="translate(-299 -238)"><path d="M315.875 242.5C315.175 242.5 314.625 243.05 314.625 243.75L314.625 249C314.625 249.425 314.3 249.75 313.875 249.75L313.125 249.75C313.1 246.1 312.575 240.5 312.575 240.5 312.575 239.675 311.925 239.025 311.125 239 310.325 239.025 309.675 239.675 309.675 240.5 309.675 240.5 309.125 246.375 309.125 250 309.125 250.775 309.15 251.725 309.2 252.75L308.125 252.75C307.7 252.75 307.375 252.425 307.375 252L307.375 248.75C307.375 248.05 306.825 247.5 306.125 247.5 305.425 247.5 304.875 248.05 304.875 248.75L304.875 252C304.875 253.8 306.325 255.25 308.125 255.25L309.35 255.25C309.525 258.225 309.75 261 309.75 261L312.5 261C312.5 261 312.925 256 313.075 252.25L313.875 252.25C315.675 252.25 317.125 250.8 317.125 249L317.125 243.75C317.125 243.05 316.575 242.5 315.875 242.5Z" fill="#004C22"/></g></svg>